HIERARCHY
ROOT Hips
{
	OFFSET 0.00000 0.00000 0.00000
	CHANNELS 6 Xposition Yposition Zposition Zrotation Yrotation Xrotation 
	JOINT LHipJoint
	{
		OFFSET 0 0 0
		CHANNELS 3 Zrotation Yrotation Xrotation
		JOINT LeftHip
		{
			OFFSET 1.48831 -1.59570 0.95625
			CHANNELS 3 Zrotation Yrotation Xrotation
			JOINT LeftKnee
			{
				OFFSET 2.20856 -6.06797 0.00000
				CHANNELS 3 Zrotation Yrotation Xrotation
				JOINT LeftAnkle
				{
					OFFSET 2.62924 -7.22379 0.00000
					CHANNELS 3 Zrotation Yrotation Xrotation
					JOINT LeftToe
					{
						OFFSET 0.16802 -0.46163 2.41673
						CHANNELS 3 Zrotation Yrotation Xrotation
						End Site
						{
							OFFSET 0.00000 -0.00000 1.23760
						}
					}
				}
			}
		}
	}
	JOINT RHipJoint
	{
		OFFSET 0 0 0
		CHANNELS 3 Zrotation Yrotation Xrotation
		JOINT RightHip
		{
			OFFSET -1.56796 -1.59570 0.95625
			CHANNELS 3 Zrotation Yrotation Xrotation
			JOINT RightKnee
			{
				OFFSET -2.29239 -6.29829 0.00000
				CHANNELS 3 Zrotation Yrotation Xrotation
				JOINT RightAnkle
				{
					OFFSET -2.66963 -7.33475 0.00000
					CHANNELS 3 Zrotation Yrotation Xrotation
					JOINT RightToe
					{
						OFFSET -0.18185 -0.49964 2.34359
						CHANNELS 3 Zrotation Yrotation Xrotation
						End Site
						{
							OFFSET -0.00000 -0.00000 1.20477
						}
					}
				}
			}
		}
	}
	JOINT lowerback
	{
		OFFSET 0 0 0
		CHANNELS 3 Zrotation Yrotation Xrotation
		JOINT Chest
		{
			OFFSET 0.03505 2.15832 -0.34324
			CHANNELS 3 Zrotation Yrotation Xrotation
			JOINT Chest2
			{
				OFFSET -0.01089 2.17963 0.04689
				CHANNELS 3 Zrotation Yrotation Xrotation
				JOINT lowerneck
				{
					OFFSET 0 0 0
					CHANNELS 3 Zrotation Yrotation Xrotation
					JOINT Neck
					{
						OFFSET 0.04686 1.69404 0.22159
						CHANNELS 3 Zrotation Yrotation Xrotation
						JOINT Head
						{
							OFFSET 0.00265 1.69305 -0.01513
							CHANNELS 3 Zrotation Yrotation Xrotation
							End Site
							{
								OFFSET -0.00415 1.80215 -0.03034
							}
						}
					}
				}
				JOINT LeftCollar
				{
					OFFSET 0 0 0
					CHANNELS 3 Zrotation Yrotation Xrotation
					JOINT LeftShoulder
					{
						OFFSET 3.67184 1.11724 -0.19002
CHANNELS 3 Zrotation Xrotation Yrotation
						JOINT LeftElbow
						{
OFFSET 0 -5.177140 -0.000000
CHANNELS 3 Zrotation Xrotation Yrotation
							JOINT LeftWrist
							{
OFFSET 0 -3.436790 -0.000000
CHANNELS 3 Zrotation Xrotation Yrotation
								JOINT lhand
								{
									OFFSET 0 0 0
CHANNELS 3 Zrotation Xrotation Yrotation
									JOINT LFingers
									{
OFFSET 0 -0.573120 -0.000000
CHANNELS 3 Zrotation Xrotation Yrotation
										End Site
										{
OFFSET 0 -0.462060 -0.000000
										}
									}
								}
								JOINT LThumb
								{
OFFSET 0 0.000000 0.000000
CHANNELS 3 Zrotation Xrotation Yrotation
									End Site
									{
OFFSET 0 -0.469120 0.469120
									}
								}
							}
						}
					}
				}
				JOINT RightCollar
				{
					OFFSET 0 0 0
					CHANNELS 3 Zrotation Yrotation Xrotation
					JOINT RightShoulder
					{
						OFFSET -3.59596 0.95831 -0.26050
CHANNELS 3 Zrotation Xrotation Yrotation
						JOINT RightElbow
						{
OFFSET 0 -5.239080 -0.000000
CHANNELS 3 Zrotation Xrotation Yrotation
							JOINT RightWrist
							{
OFFSET 0 -3.464850 -0.000000
CHANNELS 3 Zrotation Xrotation Yrotation
								JOINT rhand
								{
									OFFSET 0 0 0
CHANNELS 3 Zrotation Xrotation Yrotation
									JOINT RFingers
									{
OFFSET 0 -0.608750 -0.000000
CHANNELS 3 Zrotation Xrotation Yrotation
										End Site
										{
OFFSET 0 -0.490790 -0.000000
										}
									}
								}
								JOINT RThumb
								{
OFFSET 0 0.000000 0.000000
CHANNELS 3 Zrotation Xrotation Yrotation
									End Site
									{
OFFSET 0 -0.498290 0.498290
									}
								}
							}
						}
					}
				}
			}
		}
	}
}
MOTION
Frames: 12
Frame Time: 0.008333333333333333
7.863655 15.190572 -19.922837 -183.832329 -52.132214 199.002516 0.000000 0.000000 0.000000 -19.579343 -4.016146 -54.286204 8.825968 16.694412 55.486289 1.017051 1.953996 -19.849662 0.008600 -0.598685 -1.645214 0.000000 0.000000 0.000000 11.906566 10.288869 -54.927037 -11.736128 -18.276879 65.149867 -1.888126 -7.211678 -29.379307 -0.148792 2.485236 -6.848678 3.176156 0.549726 36.747466 -0.497973 -2.367100 18.578673 -1.530901 -2.364728 2.099257 3.059418 -2.253306 2.551683 3.826260 -3.562194 -30.013056 1.304915 -3.346620 -9.915064 0.000000 0.000000 0.000000 26.683288 -22.887825 -29.917945 47.129979 -51.770302 23.900423 19.017526 -27.316701 -10.058295 0.000000 0.000000 0.000000 -7.125000 0.000000 0.000000 -7.047454 40.507032 -0.785146 0.000000 0.000000 0.000000 -98.528459 -39.973778 -29.931861 -85.375620 -59.918871 -55.996289 -41.898921 -51.350426 7.863531 0.000000 0.000000 0.000000 7.125000 0.000000 0.000000 -13.238043 40.140860 -1.618326
7.907415 15.205446 -20.003328 -184.270684 -52.288107 199.340965 0.000000 0.000000 0.000000 -19.534250 -3.965690 -54.085439 8.741035 16.638167 55.190318 0.989447 1.869650 -19.553142 0.008491 -0.595289 -1.635773 0.000000 0.000000 0.000000 12.035466 10.322880 -54.720119 -11.715503 -18.267777 65.084237 -1.970226 -7.075784 -29.826661 -0.104806 2.087587 -5.747814 3.094999 0.323961 36.758573 -0.329268 -2.642547 18.498673 -1.225448 -2.514180 2.006116 2.527486 -1.974707 2.525167 3.827452 -3.340563 -31.075693 1.422994 -3.275031 -10.295444 0.000000 0.000000 0.000000 26.450394 -22.704227 -29.189911 47.201961 -51.802726 23.957033 19.306407 -27.325081 -9.978587 0.000000 0.000000 0.000000 -7.125000 0.000000 0.000000 -6.782678 40.448756 -0.765166 0.000000 0.000000 0.000000 -99.471929 -39.926055 -28.653308 -87.645454 -59.978925 -57.961011 -42.002657 -52.203326 7.418561 0.000000 0.000000 0.000000 7.125000 0.000000 0.000000 -13.263481 39.575319 -1.810276
7.943285 15.224009 -20.070886 -184.712833 -52.441822 199.655235 0.000000 0.000000 0.000000 -19.625911 -3.840884 -53.848559 8.644278 16.573274 54.851631 0.961923 1.857825 -19.286009 0.010034 -0.647507 -1.779448 0.000000 0.000000 0.000000 12.127606 10.181537 -54.553823 -11.690789 -18.256862 65.005165 -2.021468 -6.859240 -30.026105 -0.073904 1.753750 -4.825737 3.151418 0.125452 36.691302 -0.276333 -2.870372 18.522979 -1.135240 -2.624960 2.050142 2.345044 -1.809924 2.229103 3.766877 -3.227744 -31.528509 1.437873 -3.245215 -10.408347 0.000000 0.000000 0.000000 26.540064 -22.910373 -28.716240 47.148004 -51.778428 23.914623 19.507927 -27.658609 -9.900330 0.000000 0.000000 0.000000 -7.125000 0.000000 0.000000 -6.594597 40.384051 -0.754293 0.000000 0.000000 0.000000 -100.148575 -39.750573 -27.654973 -89.883722 -59.999883 -59.899265 -42.037119 -52.249707 7.207522 0.000000 0.000000 0.000000 7.125000 0.000000 0.000000 -13.262069 39.304855 -1.900219
7.970950 15.233750 -20.124796 -184.899691 -52.416651 199.747307 0.000000 0.000000 0.000000 -19.603640 -3.642124 -53.729482 8.605550 16.547096 54.715866 0.944677 1.876452 -19.128790 0.010408 -0.659727 -1.812926 0.000000 0.000000 0.000000 12.301833 10.180769 -54.412379 -11.671677 -18.248400 64.944097 -2.044038 -6.797280 -30.133118 -0.060285 1.583923 -4.357116 3.086401 0.068566 36.646550 -0.193316 -2.950542 18.489359 -0.990736 -2.673661 2.030093 2.187708 -1.684275 1.854035 3.593939 -3.188770 -31.754374 1.403186 -3.223916 -10.422326 0.000000 0.000000 0.000000 26.460421 -22.983725 -28.500710 47.343307 -51.866152 24.068108 19.381076 -27.754953 -10.024272 0.000000 0.000000 0.000000 -7.125000 0.000000 0.000000 -6.724905 40.502937 -0.749492 0.000000 0.000000 0.000000 -100.715394 -39.611608 -26.682240 -92.387066 -59.978397 -62.067066 -41.645021 -52.893325 7.665419 0.000000 0.000000 0.000000 7.125000 0.000000 0.000000 -12.982535 39.857282 -1.678407
7.991620 15.240416 -20.162014 -184.973972 -52.360950 199.753561 0.000000 0.000000 0.000000 -19.457525 -3.686957 -53.578447 8.588543 16.535559 54.655960 0.930303 2.066548 -19.076724 0.011891 -0.703166 -1.932355 0.000000 0.000000 0.000000 12.456955 10.257262 -54.259333 -11.639811 -18.234187 64.842609 -2.036143 -6.962334 -30.177718 -0.063988 1.631644 -4.488760 3.105830 0.002085 36.584843 -0.242739 -2.999663 18.401186 -1.035105 -2.686312 1.946974 2.231927 -1.456633 1.578250 3.273546 -2.998044 -31.955117 1.267260 -3.130097 -10.454411 0.000000 0.000000 0.000000 26.441119 -22.944082 -28.436671 47.561950 -51.963605 24.240297 19.240690 -27.876704 -10.125544 0.000000 0.000000 0.000000 -7.125000 0.000000 0.000000 -6.863754 40.596695 -0.749227 0.000000 0.000000 0.000000 -100.953285 -39.667688 -25.490404 -94.616127 -59.919284 -63.996627 -41.471052 -51.855962 8.094298 0.000000 0.000000 0.000000 7.125000 0.000000 0.000000 -12.888086 40.391211 -1.492754
8.004804 15.237625 -20.186079 -185.024492 -52.295254 199.620958 0.000000 0.000000 0.000000 -19.365145 -3.760829 -53.302817 8.586368 16.534045 54.648403 0.936462 2.340812 -19.266503 0.010923 -0.674285 -1.852916 0.000000 0.000000 0.000000 12.510567 10.532377 -53.969826 -11.637652 -18.233265 64.835566 -2.047048 -7.241296 -30.407831 -0.064439 1.637580 -4.505089 3.105455 0.037817 36.495105 -0.309355 -2.940199 18.356446 -1.123033 -2.648173 1.923749 2.276744 -1.265760 1.460158 3.132982 -2.745081 -31.824446 1.177782 -2.990526 -10.385926 0.000000 0.000000 0.000000 26.366127 -23.229276 -28.598222 47.261549 -51.829539 24.003892 19.292137 -27.891124 -10.129900 0.000000 0.000000 0.000000 -7.125000 0.000000 0.000000 -6.819539 40.605748 -0.742869 0.000000 0.000000 0.000000 -101.053752 -39.757614 -24.605571 -96.267480 -59.850982 -65.425088 -40.674813 -51.813844 8.154881 0.000000 0.000000 0.000000 7.125000 0.000000 0.000000 -12.182243 40.380314 -1.411490
8.018078 15.234486 -20.201185 -185.169284 -52.314098 199.473790 0.000000 0.000000 0.000000 -19.427720 -3.741838 -52.975691 8.574814 16.526207 54.607715 0.941250 2.527806 -19.404063 0.011229 -0.684356 -1.880712 0.000000 0.000000 0.000000 12.579870 10.429200 -53.690735 -11.634500 -18.231800 64.825600 -2.031378 -7.455426 -30.435889 -0.078521 1.807842 -4.974962 3.019016 0.151498 36.511883 -0.369849 -2.828545 18.368764 -1.174464 -2.596637 1.932408 2.267113 -1.218999 1.339999 3.180216 -2.637656 -31.534516 1.171901 -2.919622 -10.251583 0.000000 0.000000 0.000000 26.368214 -23.543155 -28.842745 47.283264 -51.839240 24.020944 19.305508 -27.852121 -10.032793 0.000000 0.000000 0.000000 -7.125000 0.000000 0.000000 -6.792171 40.505464 -0.756721 0.000000 0.000000 0.000000 -101.165941 -39.634611 -24.156151 -97.874885 -59.764302 -66.814447 -40.499748 -51.980652 8.392520 0.000000 0.000000 0.000000 7.125000 0.000000 0.000000 -12.054684 40.663444 -1.310620
8.031373 15.229140 -20.209158 -185.231576 -52.497583 199.336337 0.000000 0.000000 0.000000 -19.469805 -3.622451 -52.837031 8.576915 16.527611 54.615003 0.946104 2.404312 -19.390308 0.012802 -0.730421 -2.007395 0.000000 0.000000 0.000000 12.645840 10.387218 -53.501230 -11.650218 -18.238830 64.875768 -2.039368 -7.613685 -30.579812 -0.082447 1.852359 -5.097836 2.969292 0.187330 36.535008 -0.438733 -2.788906 18.353689 -1.230529 -2.573659 1.905675 2.319704 -1.229025 1.199879 3.060226 -2.672016 -31.345306 1.112448 -2.913729 -10.155623 0.000000 0.000000 0.000000 26.467289 -23.492255 -28.994354 47.715174 -52.031381 24.360963 19.293687 -27.881318 -10.059803 0.000000 0.000000 0.000000 -7.125000 0.000000 0.000000 -6.806757 40.532548 -0.753753 0.000000 0.000000 0.000000 -101.071432 -39.520427 -23.845329 -99.654228 -59.644815 -68.350792 -40.118493 -51.747053 8.150703 0.000000 0.000000 0.000000 7.125000 0.000000 0.000000 -11.683633 40.314297 -1.371139
8.042768 15.223797 -20.208221 -185.156841 -52.769465 199.182294 0.000000 0.000000 0.000000 -19.429167 -3.573227 -52.841063 8.590075 16.536596 54.661369 0.947889 2.253614 -19.335327 0.013438 -0.749026 -2.058414 0.000000 0.000000 0.000000 12.736437 10.390464 -53.439905 -11.680455 -18.252289 64.972240 -2.063430 -7.694622 -30.777391 -0.073545 1.749508 -4.813775 2.975753 0.208749 36.469248 -0.503772 -2.737750 18.323704 -1.317613 -2.535975 1.891160 2.496103 -1.225455 1.078571 2.901443 -2.692423 -31.259103 1.021338 -2.919455 -10.105884 0.000000 0.000000 0.000000 26.536217 -23.439550 -29.078119 47.723029 -52.034845 24.367200 19.299213 -27.938730 -10.057240 0.000000 0.000000 0.000000 -7.125000 0.000000 0.000000 -6.801674 40.530426 -0.753538 0.000000 0.000000 0.000000 -101.076914 -39.227111 -23.568892 -101.208574 -59.519887 -69.691296 -39.933909 -51.966415 8.474801 0.000000 0.000000 0.000000 7.125000 0.000000 0.000000 -11.555176 40.704256 -1.242796
8.050896 15.218176 -20.200880 -184.828317 -53.048437 198.803858 0.000000 0.000000 0.000000 -19.212984 -3.570778 -52.843915 8.614246 16.553022 54.746337 0.949651 2.174458 -19.314482 0.014200 -0.768598 -2.112368 0.000000 0.000000 0.000000 12.974823 10.446447 -53.298910 -11.683368 -18.253547 64.981504 -2.078271 -7.820050 -30.943683 -0.067278 1.673709 -4.604844 3.075170 0.204774 36.471975 -0.587206 -2.682637 18.254101 -1.468880 -2.488248 1.809280 2.596178 -1.252787 1.113286 2.910188 -2.714592 -31.276594 1.009670 -2.939034 -10.121096 0.000000 0.000000 0.000000 26.680742 -23.265637 -29.209530 47.509575 -51.940342 24.198993 19.288657 -27.959952 -9.944633 0.000000 0.000000 0.000000 -7.125000 0.000000 0.000000 -6.792702 40.411583 -0.772491 0.000000 0.000000 0.000000 -100.926607 -38.942184 -23.139200 -102.956702 -59.356002 -71.196592 -40.026839 -51.651603 8.394011 0.000000 0.000000 0.000000 7.125000 0.000000 0.000000 -11.629611 40.612431 -1.277830
8.056369 15.217958 -20.186308 -184.723853 -53.225625 198.618356 0.000000 0.000000 0.000000 -19.215020 -3.519964 -52.797822 8.606012 16.547404 54.717375 0.948688 2.064652 -19.253655 0.013600 -0.754277 -2.073031 0.000000 0.000000 0.000000 13.056241 10.330926 -53.237427 -11.683713 -18.253735 64.982634 -2.084958 -7.796756 -30.971166 -0.061596 1.601252 -4.404891 2.999520 0.267238 36.476818 -0.684654 -2.612566 18.220401 -1.550100 -2.448193 1.767755 2.738288 -1.280275 1.038220 2.754607 -2.791536 -31.292626 0.935413 -2.975087 -10.118304 0.000000 0.000000 0.000000 26.842040 -23.147478 -29.380237 47.240377 -51.820007 23.987221 19.293683 -27.968740 -9.877982 0.000000 0.000000 0.000000 -7.125000 0.000000 0.000000 -6.777641 40.342255 -0.782453 0.000000 0.000000 0.000000 -100.940855 -38.688983 -22.849786 -104.889990 -59.145384 -72.858033 -40.056341 -52.006244 8.246133 0.000000 0.000000 0.000000 7.125000 0.000000 0.000000 -11.639090 40.428452 -1.332507
8.059885 15.217812 -20.161980 -184.486751 -53.412076 198.286018 0.000000 0.000000 0.000000 -19.150184 -3.518988 -52.709045 8.600082 16.543288 54.696338 0.950093 2.030052 -19.250968 0.012905 -0.733937 -2.016877 0.000000 0.000000 0.000000 13.245937 10.061528 -53.120647 -11.652283 -18.239738 64.882465 -2.084622 -7.709280 -30.916875 -0.058002 1.554618 -4.276253 3.034618 0.265433 36.500198 -0.826671 -2.592255 18.189232 -1.720079 -2.423115 1.717994 2.915208 -1.318935 1.052903 2.669432 -2.846340 -31.254432 0.877667 -3.005468 -10.111897 0.000000 0.000000 0.000000 27.010840 -23.051328 -29.414013 46.956892 -51.691949 23.764578 19.317598 -27.946788 -9.845835 0.000000 0.000000 0.000000 -7.125000 0.000000 0.000000 -6.751790 40.310633 -0.784710 0.000000 0.000000 0.000000 -100.901935 -38.731400 -22.616582 -106.506047 -58.945126 -74.244026 -39.691521 -52.096311 8.364053 0.000000 0.000000 0.000000 7.125000 0.000000 0.000000 -11.325133 40.537493 -1.264602
